<?xml version="1.0" standalone="no"?><!DOCTYPE svg PUBLIC "-//W3C//DTD SVG 1.1//EN" "http://www.w3.org/Graphics/SVG/1.1/DTD/svg11.dtd"><svg t="1539926724013" class="icon" style="" viewBox="0 0 1024 1024" version="1.1" xmlns="http://www.w3.org/2000/svg" p-id="2930" xmlns:xlink="http://www.w3.org/1999/xlink" width="200" height="200"><defs><style type="text/css"></style></defs><path d="M913.6 447.3c0 215-182.6 389.3-407.8 389.3S98.1 662.3 98.1 447.3" fill="#E1740D" p-id="2931"></path><path d="M843.8 447.3c0 204.8-165.7 372.6-376 388.1 10.5 0.8 21 1.2 31.7 1.2 225.2 0 407.8-174.3 407.8-389.3h-63.5z" fill="#B74D20" p-id="2932"></path><path d="M505.9 844.1c-56 0-110.4-10.5-161.5-31.1-49.4-20-93.8-48.5-132-85-38.2-36.4-68.1-78.9-89.1-126.1-21.7-49-32.7-101-32.7-154.6 0-4.1 3.4-7.5 7.5-7.5s7.5 3.4 7.5 7.5c0 51.5 10.6 101.5 31.4 148.5 20.1 45.5 49 86.3 85.7 121.3 36.8 35.1 79.6 62.6 127.2 81.9 49.4 19.9 101.8 30 155.9 30s106.5-10.1 155.9-30c47.7-19.2 90.5-46.8 127.2-81.9 36.7-35.1 65.6-75.9 85.7-121.3 20.8-47 31.4-97 31.4-148.5 0-4.1 3.4-7.5 7.5-7.5s7.5 3.4 7.5 7.5c0 53.6-11 105.6-32.7 154.6-20.9 47.3-50.9 89.7-89.1 126.1-38.1 36.4-82.5 65-132 85-51 20.6-105.3 31.1-161.3 31.1z" fill="#040000" p-id="2933"></path><path d="M95.9 439a410 83.4 0 1 0 820 0 410 83.4 0 1 0-820 0Z" fill="#E1740D" p-id="2934"></path><path d="M561.2 509.1c-226.4 0-410-37.3-410-83.4 0-16.9 24.7-32.6 67.1-45.7-74.3 15.1-120.2 36-120.2 59 0 46.1 183.6 83.4 410 83.4 143.5 0 269.7-15 343-37.7-74.2 15.1-176.7 24.4-289.9 24.4z" fill="#B74D20" p-id="2935"></path><path d="M505.9 529.9c-110 0-213.5-8.7-291.4-24.6-83.7-17-126.1-39.3-126.1-66.3s42.4-49.3 126.1-66.3c77.9-15.9 181.4-24.6 291.4-24.6s213.5 8.7 291.4 24.6c83.7 17 126.1 39.3 126.1 66.3s-42.4 49.3-126.1 66.3c-77.9 15.9-181.4 24.6-291.4 24.6z m0-166.8c-109 0-211.5 8.6-288.4 24.3-37 7.5-66 16.3-86.1 25.9-18 8.7-28 17.8-28 25.7s9.9 17 28 25.7c20.1 9.7 49.1 18.4 86.1 25.9 77 15.7 179.4 24.3 288.4 24.3 109 0 211.5-8.6 288.4-24.3 37-7.5 66-16.3 86.1-25.9 18-8.7 28-17.8 28-25.7s-9.9-17-28-25.7c-20.1-9.7-49.1-18.4-86.1-25.9-77-15.7-179.4-24.3-288.4-24.3zM505.9 877.2c-29.1 0-56.5-3.4-77.2-9.5-16.6-4.9-36.5-13.9-36.5-29.3 0-4.1 3.4-7.5 7.5-7.5s7.5 3.4 7.5 7.5c0 2 4.6 8.7 25.7 14.9 19.4 5.7 45.3 8.8 73 8.8 27.7 0 53.6-3.1 73-8.8 21.1-6.2 25.7-12.8 25.7-14.9 0-4.1 3.4-7.5 7.5-7.5s7.5 3.4 7.5 7.5c0 15.3-19.8 24.4-36.5 29.3-20.7 6.1-48.2 9.5-77.2 9.5z" fill="#040000" p-id="2936"></path><path d="M376.3 591.7c-149 0-214.1-45.7-216.8-47.6-4.5-3.2-5.5-9.5-2.3-14s9.5-5.5 13.9-2.3c0.3 0.2 15.9 11.1 48.7 21.9 30.4 10 82.3 22 156.4 22 5.5 0 10 4.5 10 10s-4.4 10-9.9 10zM756.5 426.5c-1.1 0-2.2-0.2-3.3-0.6-32.3-11.2-88.4-15.7-88.9-15.7-5.5-0.4-9.6-5.2-9.2-10.7 0.4-5.5 5.2-9.6 10.7-9.2 2.4 0.2 59.2 4.7 94 16.7 5.2 1.8 8 7.5 6.2 12.7-1.5 4.2-5.4 6.8-9.5 6.8z" fill="#FFFFFF" p-id="2937"></path></svg>