<?xml version="1.0" standalone="no"?><!DOCTYPE svg PUBLIC "-//W3C//DTD SVG 1.1//EN" "http://www.w3.org/Graphics/SVG/1.1/DTD/svg11.dtd"><svg t="1539155663860" class="icon" style="" viewBox="0 0 1024 1024" version="1.1" xmlns="http://www.w3.org/2000/svg" p-id="1142" xmlns:xlink="http://www.w3.org/1999/xlink" width="200" height="200"><defs><style type="text/css"></style></defs><path d="M159.2 1012c-8.8 0-16-7.2-16-16V240.8c0-8.8 7.2-16 16-16s16 7.2 16 16v756c0 8-7.2 15.2-16 15.2z" p-id="1143"></path><path d="M340.8 468.8c-4.8 0-8.8-1.6-12-5.6L147.2 250.4c-4.8-5.6-4.8-14.4 0-20.8L328.8 17.6c3.2-4 8.8-6.4 14.4-5.6l524 84.8c8 1.6 13.6 8 13.6 15.2v256.8c0 8-5.6 14.4-13.6 15.2L343.2 468.8h-2.4zM180 240.8l167.2 196 501.6-80.8V125.6L347.2 44.8 180 240.8z" p-id="1144"></path><path d="M340.8 461.6c-4 0-8-3.2-8-8V28c0-4 3.2-8 8-8s8 3.2 8 8v425.6c0 4-3.2 8-8 8zM512 421.6c-4 0-8-3.2-8-8V67.2c0-4 3.2-8 8-8 4 0 8 3.2 8 8v347.2c0 4-4 7.2-8 7.2zM697.6 403.2c-4 0-8-3.2-8-8V85.6c0-4 3.2-8 8-8s8 3.2 8 8v310.4c0 4-3.2 7.2-8 7.2z" p-id="1145"></path></svg>